<svg xmlns="http://www.w3.org/2000/svg" xmlns:xlink="http://www.w3.org/1999/xlink" width="60"
	height="60">
	<defs>
		<path id="a" d="M.036 60h245.209V.498H.036V60z" />
	</defs>
	<mask id="b" fill="#fff">
		<use xlink:href="#a" />
	</mask>
	<path
		d="m25.547 57.548 1.812-11.494.117-.637a2.36 2.36 0 0 1 2.332-1.992h1.44c2.4 0 4.604-.256 6.552-.761 2.079-.54 3.928-1.379 5.495-2.493 1.662-1.182 3.058-2.71 4.15-4.54 1.15-1.931 1.996-4.256 2.513-6.91.456-2.342.541-4.44.255-6.234-.304-1.896-1.034-3.514-2.17-4.81-.69-.784-1.571-1.464-2.621-2.02l-.025-.014v-.03c.366-2.34.352-4.29-.042-5.97-.397-1.682-1.2-3.197-2.456-4.628-2.603-2.967-7.337-4.47-14.071-4.47H10.334a2.602 2.602 0 0 0-2.567 2.193L.067 51.57a1.537 1.537 0 0 0 1.522 1.78H13.06l-.01.055-.788 4.997a1.342 1.342 0 0 0 1.325 1.551h9.624a2.268 2.268 0 0 0 2.24-1.914l.095-.49"
		fill="#27346A" mask="url(#b)" />
	<path
		d="M45.443 15.615c-.055.353-.116.712-.19 1.083-2.437 12.521-10.781 16.85-21.438 16.85h-5.427a2.637 2.637 0 0 0-2.604 2.234l-3.567 22.613A1.389 1.389 0 0 0 13.588 60h9.624a2.314 2.314 0 0 0 2.286-1.954l.095-.489 1.812-11.496.117-.635a2.314 2.314 0 0 1 2.286-1.954h1.44c9.323 0 16.623-3.788 18.756-14.742.891-4.577.43-8.397-1.926-11.083-.713-.812-1.6-1.485-2.635-2.032"
		fill="#2790C3" />
	<path
		d="M42.89 14.598c-.37-.11-.754-.207-1.15-.295a21.06 21.06 0 0 0-1.22-.233c-1.465-.235-3.066-.348-4.784-.348H21.24a2.313 2.313 0 0 0-2.286 1.954l-3.081 19.536-.09.57a2.637 2.637 0 0 1 2.605-2.234h5.427c10.657 0 19-4.329 21.439-16.85.073-.37.134-.73.189-1.083a13.105 13.105 0 0 0-2.004-.847c-.18-.06-.362-.116-.548-.17"
		fill="#1F264F" />
</svg>
